<?xml version="1.0" standalone="no"?><!DOCTYPE svg PUBLIC "-//W3C//DTD SVG 1.1//EN" "http://www.w3.org/Graphics/SVG/1.1/DTD/svg11.dtd"><svg t="1596162366593" class="icon" viewBox="0 0 1024 1024" version="1.1" xmlns="http://www.w3.org/2000/svg" p-id="1340" xmlns:xlink="http://www.w3.org/1999/xlink" width="128" height="128"><defs><style type="text/css"></style></defs><path d="M855.95688616-3.63068608h171.42418042v171.77579498H855.95688616zM512.32879988-3.63068608h171.42418043v171.77579498H512.32879988zM168.31689008-3.81186153h171.4241804v171.77579498H168.31689008zM684.33408376 168.52624836h171.42418043v171.77579499H684.33408376zM340.70465545 168.52624836h171.42418043v171.77579499H340.70465545zM-3.30591232 168.34507292h171.42418043v171.77579499H-3.30591232zM856.14879792 340.59192407h171.42418044v171.77579499H856.14879792zM512.51936961 340.59192407h171.42418043v171.77579499H512.51936961zM168.50880183 340.41074863h171.42418043v171.77579498H168.50880183zM684.52465349 512.15433464h171.42418042v171.77579499H684.52465349zM340.89656722 512.15433464h171.42418043v171.77579499H340.89656722zM-3.1153426 511.97450123h171.42418042v171.77579499H-3.1153426zM856.33936767 683.71808726h171.4241804v171.775795H856.33936767zM512.70993934 683.71808726h171.42418042v171.775795H512.70993934zM168.69937157 683.53691181h171.4241804v171.775795H168.69937157zM684.71656527 855.28049784h171.42418041v171.77579497H684.71656527zM341.08713695 855.28049784h171.42418042v171.77579497H341.08713695zM-2.92343081 855.09932238h171.4241804v171.77579498H-2.92343081z" p-id="1341" fill="#c8c8c8"></path></svg>