<svg width="40" height="40" viewBox="0 0 40 40" fill="none" xmlns="http://www.w3.org/2000/svg">
<rect width="40" height="40" rx="20" fill="#1E50FF" fill-opacity="0.1"/>
<path d="M16.4 11H12.6C12.0399 11 11.7599 11 11.546 11.109C11.3578 11.2049 11.2049 11.3578 11.109 11.546C11 11.7599 11 12.0399 11 12.6V16.4C11 16.9601 11 17.2401 11.109 17.454C11.2049 17.6422 11.3578 17.7951 11.546 17.891C11.7599 18 12.0399 18 12.6 18H16.4C16.9601 18 17.2401 18 17.454 17.891C17.6422 17.7951 17.7951 17.6422 17.891 17.454C18 17.2401 18 16.9601 18 16.4V12.6C18 12.0399 18 11.7599 17.891 11.546C17.7951 11.3578 17.6422 11.2049 17.454 11.109C17.2401 11 16.9601 11 16.4 11Z" fill="#1E50FF" fill-opacity="0.2"/>
<path d="M27.4 21H23.6C23.0399 21 22.7599 21 22.546 21.109C22.3578 21.2049 22.2049 21.3578 22.109 21.546C22 21.7599 22 22.0399 22 22.6V26.4C22 26.9601 22 27.2401 22.109 27.454C22.2049 27.6422 22.3578 27.7951 22.546 27.891C22.7599 28 23.0399 28 23.6 28H27.4C27.9601 28 28.2401 28 28.454 27.891C28.6422 27.7951 28.7951 27.6422 28.891 27.454C29 27.2401 29 26.9601 29 26.4V22.6C29 22.0399 29 21.7599 28.891 21.546C28.7951 21.3578 28.6422 21.2049 28.454 21.109C28.2401 21 27.9601 21 27.4 21Z" fill="#1E50FF" fill-opacity="0.2"/>
<path d="M16.4 11H12.6C12.0399 11 11.7599 11 11.546 11.109C11.3578 11.2049 11.2049 11.3578 11.109 11.546C11 11.7599 11 12.0399 11 12.6V16.4C11 16.9601 11 17.2401 11.109 17.454C11.2049 17.6422 11.3578 17.7951 11.546 17.891C11.7599 18 12.0399 18 12.6 18H16.4C16.9601 18 17.2401 18 17.454 17.891C17.6422 17.7951 17.7951 17.6422 17.891 17.454C18 17.2401 18 16.9601 18 16.4V12.6C18 12.0399 18 11.7599 17.891 11.546C17.7951 11.3578 17.6422 11.2049 17.454 11.109C17.2401 11 16.9601 11 16.4 11Z" stroke="#1E50FF" stroke-width="2" stroke-linecap="round" stroke-linejoin="round"/>
<path d="M27.4 11H23.6C23.0399 11 22.7599 11 22.546 11.109C22.3578 11.2049 22.2049 11.3578 22.109 11.546C22 11.7599 22 12.0399 22 12.6V16.4C22 16.9601 22 17.2401 22.109 17.454C22.2049 17.6422 22.3578 17.7951 22.546 17.891C22.7599 18 23.0399 18 23.6 18H27.4C27.9601 18 28.2401 18 28.454 17.891C28.6422 17.7951 28.7951 17.6422 28.891 17.454C29 17.2401 29 16.9601 29 16.4V12.6C29 12.0399 29 11.7599 28.891 11.546C28.7951 11.3578 28.6422 11.2049 28.454 11.109C28.2401 11 27.9601 11 27.4 11Z" stroke="#1E50FF" stroke-width="2" stroke-linecap="round" stroke-linejoin="round"/>
<path d="M27.4 22H23.6C23.0399 22 22.7599 22 22.546 22.109C22.3578 22.2049 22.2049 22.3578 22.109 22.546C22 22.7599 22 23.0399 22 23.6V27.4C22 27.9601 22 28.2401 22.109 28.454C22.2049 28.6422 22.3578 28.7951 22.546 28.891C22.7599 29 23.0399 29 23.6 29H27.4C27.9601 29 28.2401 29 28.454 28.891C28.6422 28.7951 28.7951 28.6422 28.891 28.454C29 28.2401 29 27.9601 29 27.4V23.6C29 23.0399 29 22.7599 28.891 22.546C28.7951 22.3578 28.6422 22.2049 28.454 22.109C28.2401 22 27.9601 22 27.4 22Z" stroke="#1E50FF" stroke-width="2" stroke-linecap="round" stroke-linejoin="round"/>
<path d="M16.4 22H12.6C12.0399 22 11.7599 22 11.546 22.109C11.3578 22.2049 11.2049 22.3578 11.109 22.546C11 22.7599 11 23.0399 11 23.6V27.4C11 27.9601 11 28.2401 11.109 28.454C11.2049 28.6422 11.3578 28.7951 11.546 28.891C11.7599 29 12.0399 29 12.6 29H16.4C16.9601 29 17.2401 29 17.454 28.891C17.6422 28.7951 17.7951 28.6422 17.891 28.454C18 28.2401 18 27.9601 18 27.4V23.6C18 23.0399 18 22.7599 17.891 22.546C17.7951 22.3578 17.6422 22.2049 17.454 22.109C17.2401 22 16.9601 22 16.4 22Z" stroke="#1E50FF" stroke-width="2" stroke-linecap="round" stroke-linejoin="round"/>
</svg>
