<svg width="40" height="40" viewBox="0 0 40 40" fill="none" xmlns="http://www.w3.org/2000/svg">
<rect width="40" height="40" rx="20" fill="#1E50FF" fill-opacity="0.1"/>
<path d="M14 13C14 13.8284 13.3284 14.5 12.5 14.5C11.6716 14.5 11 13.8284 11 13C11 12.1716 11.6716 11.5 12.5 11.5C13.3284 11.5 14 12.1716 14 13Z" fill="#1E50FF" fill-opacity="0.2"/>
<path d="M14 27C14 27.8284 13.3284 28.5 12.5 28.5C11.6716 28.5 11 27.8284 11 27C11 26.1716 11.6716 25.5 12.5 25.5C13.3284 25.5 14 26.1716 14 27Z" fill="#1E50FF" fill-opacity="0.2"/>
<path d="M14 20C14 20.8284 13.3284 21.5 12.5 21.5C11.6716 21.5 11 20.8284 11 20C11 19.1716 11.6716 18.5 12.5 18.5C13.3284 18.5 14 19.1716 14 20Z" fill="#1E50FF" fill-opacity="0.2"/>
<path d="M29 13L18 13M29 27L18 27M29 20L18 20M14 13C14 13.8284 13.3284 14.5 12.5 14.5C11.6716 14.5 11 13.8284 11 13C11 12.1716 11.6716 11.5 12.5 11.5C13.3284 11.5 14 12.1716 14 13ZM14 27C14 27.8284 13.3284 28.5 12.5 28.5C11.6716 28.5 11 27.8284 11 27C11 26.1716 11.6716 25.5 12.5 25.5C13.3284 25.5 14 26.1716 14 27ZM14 20C14 20.8284 13.3284 21.5 12.5 21.5C11.6716 21.5 11 20.8284 11 20C11 19.1716 11.6716 18.5 12.5 18.5C13.3284 18.5 14 19.1716 14 20Z" stroke="#1E50FF" stroke-width="2" stroke-linecap="round" stroke-linejoin="round"/>
</svg>
