<svg width="136" height="136" viewBox="0 0 136 136" fill="none" xmlns="http://www.w3.org/2000/svg">
<path d="M128 68C128 34.8629 101.137 8 68 8C34.8629 8 8 34.8629 8 68C8 101.137 34.8629 128 68 128C101.137 128 128 101.137 128 68Z" fill="white"/>
<path d="M132 68C132 32.6538 103.346 4 68 4C32.6538 4 4 32.6538 4 68C4 103.346 32.6538 132 68 132C103.346 132 132 103.346 132 68Z" stroke="#ECF1F4" stroke-opacity="0.25" stroke-width="8"/>
<mask id="mask0_7703_226" style="mask-type:luminance" maskUnits="userSpaceOnUse" x="8" y="8" width="120" height="120">
<path d="M128 68C128 34.8629 101.137 8 68 8C34.8629 8 8 34.8629 8 68C8 101.137 34.8629 128 68 128C101.137 128 128 101.137 128 68Z" fill="white"/>
</mask>
<g mask="url(#mask0_7703_226)">
<path d="M128 8H8V128H128V8Z" fill="#0C8F8F"/>
<path d="M141.333 81.3333C141.333 48.1963 114.47 21.3333 81.3333 21.3333C48.1962 21.3333 21.3333 48.1963 21.3333 81.3333C21.3333 114.47 48.1962 141.333 81.3333 141.333C114.47 141.333 141.333 114.47 141.333 81.3333Z" fill="#FFAD08"/>
<path d="M51.3333 91.3333C51.3333 94.6485 53.0893 97.8279 56.2149 100.172C59.3405 102.516 63.5797 103.833 68 103.833C72.4203 103.833 76.6595 102.516 79.7851 100.172C82.9107 97.8279 84.6667 94.6485 84.6667 91.3333" fill="black"/>
<path d="M59.6667 78C59.6667 76.159 58.5474 74.6667 57.1667 74.6667C55.786 74.6667 54.6667 76.159 54.6667 78C54.6667 79.8409 55.786 81.3333 57.1667 81.3333C58.5474 81.3333 59.6667 79.8409 59.6667 78Z" fill="black"/>
<path d="M79.6667 78C79.6667 76.159 78.5474 74.6667 77.1667 74.6667C75.786 74.6667 74.6667 76.159 74.6667 78C74.6667 79.8409 75.786 81.3333 77.1667 81.3333C78.5474 81.3333 79.6667 79.8409 79.6667 78Z" fill="black"/>
</g>
</svg>
