<svg width="16" height="16" viewBox="0 0 16 16" fill="none" xmlns="http://www.w3.org/2000/svg">
<g id="copy-07" clip-path="url(#clip0_8186_770)">
<path id="Icon" d="M7.00016 1.33524C6.55013 1.34134 6.27996 1.36739 6.06151 1.4787C5.81063 1.60653 5.60665 1.8105 5.47882 2.06139C5.36751 2.27984 5.34146 2.55001 5.33536 3.00004M13.0002 1.33524C13.4502 1.34134 13.7204 1.36739 13.9388 1.4787C14.1897 1.60653 14.3937 1.8105 14.5215 2.06139C14.6328 2.27984 14.6589 2.55 14.665 3.00003M14.665 9.00003C14.6589 9.45007 14.6328 9.72024 14.5215 9.93869C14.3937 10.1896 14.1897 10.3936 13.9388 10.5214C13.7204 10.6327 13.4502 10.6587 13.0002 10.6648M14.6668 5.33337V6.6667M9.33353 1.33337H10.6668M3.46683 14.6667H8.5335C9.28023 14.6667 9.6536 14.6667 9.93882 14.5214C10.1897 14.3936 10.3937 14.1896 10.5215 13.9387C10.6668 13.6535 10.6668 13.2801 10.6668 12.5334V7.46671C10.6668 6.71997 10.6668 6.3466 10.5215 6.06139C10.3937 5.8105 10.1897 5.60653 9.93882 5.4787C9.6536 5.33337 9.28023 5.33337 8.5335 5.33337H3.46683C2.72009 5.33337 2.34672 5.33337 2.06151 5.4787C1.81063 5.60653 1.60665 5.8105 1.47882 6.06139C1.3335 6.3466 1.3335 6.71997 1.3335 7.46671V12.5334C1.3335 13.2801 1.3335 13.6535 1.47882 13.9387C1.60665 14.1896 1.81063 14.3936 2.06151 14.5214C2.34672 14.6667 2.72009 14.6667 3.46683 14.6667Z" stroke="#0E0E2C" stroke-width="1.5" stroke-linecap="round" stroke-linejoin="round"/>
</g>
<defs>
<clipPath id="clip0_8186_770">
<rect width="16" height="16" fill="white"/>
</clipPath>
</defs>
</svg>
