<svg width="24" height="24" viewBox="0 0 24 24" fill="none" xmlns="http://www.w3.org/2000/svg">
<path fill-rule="evenodd" clip-rule="evenodd" d="M13.2952 16.9703C12.1819 17.6247 10.8848 18 9.5 18C5.35786 18 2 14.6421 2 10.5C2 6.35786 5.35786 3 9.5 3C12.3827 3 14.8855 4.62634 16.141 7.01153C16.2597 7.00388 16.3794 7 16.5 7C19.5376 7 22 9.46243 22 12.5C22 15.5376 19.5376 18 16.5 18C15.3042 18 14.1975 17.6184 13.2952 16.9703Z" fill="#1E50FF" fill-opacity="0.2"/>
<path d="M20 16.7428C21.2215 15.734 22 14.2079 22 12.5C22 9.46243 19.5376 7 16.5 7C16.2815 7 16.0771 6.886 15.9661 6.69774C14.6621 4.48484 12.2544 3 9.5 3C5.35786 3 2 6.35786 2 10.5C2 12.5661 2.83545 14.4371 4.18695 15.7935" stroke="#1E50FF" stroke-width="2" stroke-linecap="round" stroke-linejoin="round"/>
<path d="M8 17L12 21M12 21L16 17M12 21V12" stroke="#1E50FF" stroke-width="2" stroke-linecap="round" stroke-linejoin="round"/>
</svg>
